<?xml version="1.0" encoding="UTF-8"?>
<svg width="60px" height="60px" viewBox="0 0 60 60" version="1.1" xmlns="http://www.w3.org/2000/svg" xmlns:xlink="http://www.w3.org/1999/xlink">
    <!-- Generator: Sketch 40.2 (33826) - http://www.bohemiancoding.com/sketch -->
    <title>Design_Automation_API</title>
    <desc>Created with Sketch.</desc>
    <defs></defs>
    <g id="Symbols" stroke="none" stroke-width="1" fill="none" fill-rule="evenodd">
        <g id="Design_Automation_API">
            <g id="Group-2" transform="translate(4.000000, 11.000000)">
                <path d="M53,21.9762744 C53,16.8452836 48.7728175,12.593047 43.4871794,12.3616543 C43.483135,12.593047 43.4087301,12.5970388 43.4871794,12.3616543 C43.3382937,12.4742918 43.344246,12.3505468 43.4871794,12.3616543 C43.344246,5.47371923 37.9027778,0 31.2564102,0 C26.1875,0 21.8918651,3.04272925 20.3846154,6.86758575 C18.8680555,6.15830836 17.2311508,5.3878961 14.948718,5.4940686 C11.8938493,5.3878961 9.04166667,8.25698322 9.51282052,12.3616543 C9.04166667,12.0701248 9.06448413,12.3375735 9.51282052,12.3616543 C4.04265873,12.7846522 0,16.962043 0,21.9762744 C0,27.3376599 4.22718254,31.5908944 9.51282052,31.5908944 C9.58531747,31.5908944 9.7281746,31.5859047 9.51282052,31.5908944 L9.51282052,31.5908944 L43.4871794,31.5908944 L43.4871794,31.5908944 C48.9335318,31.42324 53,27.2368676 53,21.9762744" id="Fill-1" fill="#3566CC"></path>
                <g id="Group" transform="translate(26.500000, 15.795447)">
                    <path d="M9.275,21.0605963 C5.32504241,21.0605963 1.325,19.6144788 1.325,16.848477 L1.325,4.21211926 C1.325,1.44611753 5.32504241,0 9.275,0 C13.2259207,0 17.225,1.44611753 17.225,4.21211926 L17.225,16.848477 C17.225,19.6144788 13.2259207,21.0605963 9.275,21.0605963" id="Fill-2" fill="#FFFFFF"></path>
                    <path d="M17.225,3.9488618 L17.225,15.7954472 C17.225,17.1503759 12.6367754,18.4280218 8.6125,18.4280218 C4.58721996,18.4280218 1.325,17.1503759 1.325,15.7954472 L1.325,3.9488618 C1.325,2.63257454 5.3,1.31628727 9.275,1.31628727 C13.25,1.31628727 17.225,2.63257454 17.225,3.9488618 L17.225,3.9488618 Z M0,5.26514907 L0,15.7954472 C0,19.5632256 4.80714324,21.0605963 8.56153846,21.0605963 C13.7418544,21.0605963 18.55,19.5632256 18.55,15.7954472 L18.55,5.26514907 C18.55,0 14.575,0 9.275,0 C3.975,0 0,0 0,5.26514907 L0,5.26514907 Z" id="Fill-3" fill="#FFFFFF"></path>
                    <path d="M17.225,4.60700544 C17.225,6.42461049 13.6651186,7.89772361 8.55227272,7.89772361 C4.88378541,7.89772361 1.325,6.42461049 1.325,4.60700544 C1.325,2.78940039 4.88378541,1.31628727 8.55227272,1.31628727 C13.6651186,1.31628727 17.225,2.78940039 17.225,4.60700544" id="Fill-4" fill="#0696D7"></path>
                    <path d="M8.55227272,9.21401088 C4.88378541,9.29075077 1.325,8.07750391 1.325,6.58143634 L1.325,10.5302981 C1.325,11.9496259 4.88378541,13.1628727 8.55227272,13.1628727 C13.6651186,13.1628727 17.225,11.9496259 17.225,10.5302981 L17.225,6.58143634 C17.225,8.07750391 13.6651186,9.29075077 8.55227272,9.21401088" id="Fill-5" fill="#0696D7"></path>
                    <path d="M8.55227272,14.47916 C4.88378541,14.5564297 1.325,13.3433488 1.325,11.8465854 L1.325,15.7954472 C1.325,17.2140403 4.88378541,18.4280218 8.55227272,18.4280218 C13.6651186,18.4280218 17.225,17.2140403 17.225,15.7954472 L17.225,11.8465854 C17.225,13.3433488 13.6651186,14.5564297 8.55227272,14.47916" id="Fill-6" fill="#0696D7"></path>
                </g>
            </g>
        </g>
    </g>
</svg>