<?xml version="1.0" encoding="UTF-8"?>
<svg width="60px" height="60px" viewBox="0 0 60 60" version="1.1" xmlns="http://www.w3.org/2000/svg" xmlns:xlink="http://www.w3.org/1999/xlink">
    <!-- Generator: Sketch 40.2 (33826) - http://www.bohemiancoding.com/sketch -->
    <title>Model_Derivative_API_Grey</title>
    <desc>Created with Sketch.</desc>
    <defs>
        <path d="M10.033,0.048 C5.495,0.048 2.394,1.432 2.463,6.812 L0.388,6.812 L0.386,6.812 C0.061,6.814 -0.117,7.191 0.088,7.443 L4.085,12.733 C4.176,12.823 4.236,12.883 4.385,12.883 C4.536,12.883 4.626,12.823 4.687,12.733 L8.684,7.412 L8.699,7.392 C8.89,7.137 8.702,6.773 8.384,6.781 L6.28,6.781 C6.339,1.01 9.342,0.62 10.033,0.079 C10.108,0.048 10.145,0.041 10.144,0.041 C10.144,0.041 10.107,0.048 10.033,0.048 L10.033,0.048 L10.033,0.048 Z" id="path-1"></path>
        <path d="M5.874,1.093 L1.877,6.413 L1.863,6.433 C1.671,6.688 1.858,7.052 2.178,7.044 L4.281,7.044 C4.221,12.815 1.219,13.206 0.528,13.747 C0.464,13.773 0.427,13.782 0.418,13.784 C0.427,13.782 0.464,13.777 0.528,13.777 C5.067,13.777 8.166,12.394 8.099,7.014 L10.172,7.014 L10.175,7.014 C10.5,7.012 10.678,6.634 10.473,6.383 L6.475,1.093 C6.385,1.003 6.326,0.942 6.175,0.942 C6.024,0.942 5.934,1.003 5.874,1.093 L5.874,1.093 L5.874,1.093 Z" id="path-3"></path>
    </defs>
    <g id="Symbols" stroke="none" stroke-width="1" fill="none" fill-rule="evenodd">
        <g id="Model_Derivative_API_Grey">
            <g id="Group-7" transform="translate(10.000000, 8.000000)">
                <path d="M21.8946,43.1853 L2.6666,43.1853 C1.3416,43.1853 0.2676,42.1113 0.2676,40.7863 L0.2676,15.0393 C0.2676,13.7143 1.3416,12.6403 2.6666,12.6403 L21.8946,12.6403 C23.2196,12.6403 24.2936,13.7143 24.2936,15.0393 L24.2936,40.7863 C24.2936,42.1113 23.2196,43.1853 21.8946,43.1853" id="Fill-1" fill="#D7DADF"></path>
                <path d="M29.8945,6.6402 L10.6665,6.6402 C9.3415,6.6402 8.2675,7.7142 8.2675,9.0392 L8.2675,10.6402 L23.8945,10.6402 C25.2195,10.6402 26.2935,11.7142 26.2935,13.0392 L26.2935,37.1852 L29.8945,37.1852 C31.2195,37.1852 32.2935,36.1112 32.2935,34.7862 L32.2935,9.0392 C32.2935,7.7142 31.2195,6.6402 29.8945,6.6402" id="Fill-3" fill="#E6E9ED"></path>
                <path d="M37.8945,0.6402 L18.6665,0.6402 C17.3415,0.6402 16.2675,1.7142 16.2675,3.0392 L16.2675,4.6402 L31.8945,4.6402 C33.2195,4.6402 34.2935,5.7142 34.2935,7.0392 L34.2935,31.1852 L37.8945,31.1852 C39.2195,31.1852 40.2935,30.1112 40.2935,28.7862 L40.2935,3.0392 C40.2935,1.7142 39.2195,0.6402 37.8945,0.6402" id="Fill-5" fill="#E6E9ED"></path>
            </g>
            <g id="Group-10" transform="translate(13.000000, 29.000000)">
                <g id="Fill-8-Clipped">
                    <mask id="mask-2" fill="white">
                        <use xlink:href="#path-1"></use>
                    </mask>
                    <g id="path-1"></g>
                    <polygon id="Fill-8" fill="#FFFFFF" mask="url(#mask-2)" points="-5 17.883 15.145 17.883 15.145 -4.959 -5 -4.959"></polygon>
                </g>
            </g>
            <g id="Group-13" transform="translate(21.000000, 29.000000)">
                <g id="Fill-11-Clipped">
                    <mask id="mask-4" fill="white">
                        <use xlink:href="#path-3"></use>
                    </mask>
                    <g id="path-3"></g>
                    <polygon id="Fill-11" fill="#FFFFFF" mask="url(#mask-4)" points="-4.584 18.784 15.561 18.784 15.561 -4.058 -4.584 -4.058"></polygon>
                </g>
            </g>
        </g>
    </g>
</svg>