<?xml version="1.0" encoding="UTF-8"?>
<svg width="60px" height="60px" viewBox="0 0 60 60" version="1.1" xmlns="http://www.w3.org/2000/svg" xmlns:xlink="http://www.w3.org/1999/xlink">
    <!-- Generator: Sketch 40.2 (33826) - http://www.bohemiancoding.com/sketch -->
    <title>Data_Management_Grey</title>
    <desc>Created with Sketch.</desc>
    <defs></defs>
    <g id="Symbols" stroke="none" stroke-width="1" fill="none" fill-rule="evenodd">
        <g id="Data_Management_Grey">
            <g id="Data_Management" transform="translate(4.000000, 14.000000)">
                <g id="Group-3" transform="translate(0.000000, 0.692789)" fill="#D7DADF">
                    <path d="M51.8079714,19.38196 C51.8079714,13.9189886 47.3790571,9.49007429 41.9160857,9.49007429 C40.7564857,9.49007429 39.6481429,9.70030286 38.6140857,10.0665314 C36.9084857,4.27818857 31.5628857,0.0498457143 25.2226,0.0498457143 C18.4484857,0.0498457143 12.8035143,4.87321714 11.5280286,11.2721886 C10.9523143,11.1667029 10.361,11.10356 9.75482857,11.10356 C4.61797143,11.10356 0.4186,15.07636 0.0375142857,20.11516 C0.00037142857,20.2407029 0.0152285714,20.3625314 0.0189428571,20.4865886 C0.0144857143,20.6113886 0.00037142857,20.7324743 0.00037142857,20.8580171 C0.00037142857,23.34436 0.937857143,25.60636 2.46962857,27.3290457 C4.63208571,30.13036 8.01431429,31.9429314 11.8274,31.9429314 L39.9802,31.9429314 C46.5128857,31.9429314 51.8079714,26.6478457 51.8079714,20.11516 L51.8079714,19.38196 Z" id="Fill-1"></path>
                </g>
                <path d="M18.6618343,14.7894686 L33.1460629,14.7894686" id="Stroke-4" stroke="#FFFFFF" stroke-width="2" stroke-linecap="round"></path>
                <path d="M18.6618343,19.9894686 L33.1460629,19.9894686" id="Stroke-6" stroke="#FFFFFF" stroke-width="2" stroke-linecap="round"></path>
                <path d="M18.6618343,25.1894686 L33.1460629,25.1894686" id="Stroke-8" stroke="#FFFFFF" stroke-width="2" stroke-linecap="round"></path>
                <g id="Group-16" transform="translate(19.314286, 13.321360)" fill="#D0D0D0">
                    <path d="M11.74316,0.693531429 C12.5380171,1.48838857 12.5380171,2.77650286 11.74316,3.57061714 C10.9483029,4.36547429 9.66018857,4.36547429 8.86607429,3.57061714 C8.07121714,2.77650286 8.07121714,1.48838857 8.86607429,0.693531429 C9.66018857,-0.101325714 10.9483029,-0.101325714 11.74316,0.693531429" id="Fill-10"></path>
                    <path d="M3.80134857,5.97242286 C4.59620571,6.76728 4.59620571,8.05539429 3.80134857,8.84950857 C3.00649143,9.64436571 1.71837714,9.64436571 0.924262857,8.84950857 C0.129405714,8.05539429 0.129405714,6.76728 0.924262857,5.97242286 C1.71837714,5.17756571 3.00649143,5.17756571 3.80134857,5.97242286" id="Fill-12"></path>
                    <path d="M11.74316,11.1724229 C12.5380171,11.96728 12.5380171,13.2553943 11.74316,14.0495086 C10.9483029,14.8443657 9.66018857,14.8443657 8.86607429,14.0495086 C8.07121714,13.2553943 8.07121714,11.96728 8.86607429,11.1724229 C9.66018857,10.3775657 10.9483029,10.3775657 11.74316,11.1724229" id="Fill-14"></path>
                </g>
                <path d="M29.6189029,12.6761886 C29.09816,12.6761886 28.5774171,12.8745314 28.1799886,13.27196 C27.3858743,14.0668171 27.3858743,15.3549314 28.1799886,16.1490457 C28.5774171,16.5464743 29.09816,16.7448171 29.6189029,16.7448171 C30.1396457,16.7448171 30.6603886,16.5464743 31.0578171,16.1490457 C31.8519314,15.3549314 31.8519314,14.0668171 31.0578171,13.27196 C30.6603886,12.8745314 30.1396457,12.6761886 29.6189029,12.6761886 M29.6189029,14.1619029 C29.7035886,14.1619029 29.8670171,14.1827029 30.0066743,14.32236 C30.2206171,14.5363029 30.2206171,14.8847029 30.0066743,15.0986457 C29.8670171,15.2383029 29.7035886,15.2591029 29.6189029,15.2591029 C29.5342171,15.2591029 29.3707886,15.2383029 29.2311314,15.0986457 C29.0171886,14.8847029 29.0171886,14.5363029 29.2311314,14.32236 C29.3707886,14.1827029 29.5342171,14.1619029 29.6189029,14.1619029" id="Fill-17" fill="#FFFFFF"></path>
                <path d="M21.6770914,17.95508 C21.1563486,17.95508 20.6356057,18.1534229 20.2381771,18.5508514 C19.4440629,19.3457086 19.4440629,20.6338229 20.2381771,21.4279371 C20.6356057,21.8253657 21.1563486,22.0237086 21.6770914,22.0237086 C22.1978343,22.0237086 22.7185771,21.8253657 23.1160057,21.4279371 C23.91012,20.6338229 23.91012,19.3457086 23.1160057,18.5508514 C22.7185771,18.1534229 22.1978343,17.95508 21.6770914,17.95508 M21.6770914,19.4407943 C21.7617771,19.4407943 21.9252057,19.4615943 22.0648629,19.6012514 C22.2788057,19.8151943 22.2788057,20.1635943 22.0648629,20.3775371 C21.9252057,20.5171943 21.7617771,20.5379943 21.6770914,20.5379943 C21.5924057,20.5379943 21.4289771,20.5171943 21.28932,20.3775371 C21.0753771,20.1635943 21.0753771,19.8151943 21.28932,19.6012514 C21.4289771,19.4615943 21.5924057,19.4407943 21.6770914,19.4407943" id="Fill-19" fill="#FFFFFF"></path>
                <path d="M29.6189029,23.15508 C29.09816,23.15508 28.5774171,23.3534229 28.1799886,23.7508514 C27.3858743,24.5457086 27.3858743,25.8338229 28.1799886,26.6279371 C28.5774171,27.0253657 29.09816,27.2237086 29.6189029,27.2237086 C30.1396457,27.2237086 30.6603886,27.0253657 31.0578171,26.6279371 C31.8519314,25.8338229 31.8519314,24.5457086 31.0578171,23.7508514 C30.6603886,23.3534229 30.1396457,23.15508 29.6189029,23.15508 M29.6189029,24.6407943 C29.7035886,24.6407943 29.8670171,24.6615943 30.0066743,24.8012514 C30.2206171,25.0151943 30.2206171,25.3635943 30.0066743,25.5775371 C29.8670171,25.7171943 29.7035886,25.7379943 29.6189029,25.7379943 C29.5342171,25.7379943 29.3707886,25.7171943 29.2311314,25.5775371 C29.0171886,25.3635943 29.0171886,25.0151943 29.2311314,24.8012514 C29.3707886,24.6615943 29.5342171,24.6407943 29.6189029,24.6407943" id="Fill-21" fill="#FFFFFF"></path>
            </g>
        </g>
    </g>
</svg>