<?xml version="1.0" encoding="UTF-8"?>
<svg width="60px" height="60px" viewBox="0 0 60 60" version="1.1" xmlns="http://www.w3.org/2000/svg" xmlns:xlink="http://www.w3.org/1999/xlink">
    <!-- Generator: Sketch 40.2 (33826) - http://www.bohemiancoding.com/sketch -->
    <title>icon - Data Management</title>
    <desc>Created with Sketch.</desc>
    <defs></defs>
    <g id="Symbols" stroke="none" stroke-width="1" fill="none" fill-rule="evenodd">
        <g id="icon---Data-Management">
            <path d="M55.8079714,34.0747486 C55.8079714,28.6117771 51.3790571,24.1828629 45.9160857,24.1828629 C44.7564857,24.1828629 43.6481429,24.3930914 42.6140857,24.75932 C40.9084857,18.9709771 35.5628857,14.7426343 29.2226,14.7426343 C22.4484857,14.7426343 16.8035143,19.5660057 15.5280286,25.9649771 C14.9523143,25.8594914 14.361,25.7963486 13.7548286,25.7963486 C8.61797143,25.7963486 4.4186,29.7691486 4.03751429,34.8079486 C4.00037143,34.9334914 4.01522857,35.05532 4.01894286,35.1793771 C4.01448571,35.3041771 4.00037143,35.4252629 4.00037143,35.5508057 C4.00037143,38.0371486 4.93785714,40.2991486 6.46962857,42.0218343 C8.63208571,44.8231486 12.0143143,46.63572 15.8274,46.63572 L43.9802,46.63572 C50.5128857,46.63572 55.8079714,41.3406343 55.8079714,34.8079486 L55.8079714,34.0747486 Z" id="Fill-1" fill="#3566CC"></path>
            <path d="M22.6618343,28.7894686 L37.1460629,28.7894686" id="Stroke-4" stroke="#FFFFFF" stroke-width="2" stroke-linecap="round"></path>
            <path d="M22.6618343,33.9894686 L37.1460629,33.9894686" id="Stroke-6" stroke="#FFFFFF" stroke-width="2" stroke-linecap="round"></path>
            <path d="M22.6618343,39.1894686 L37.1460629,39.1894686" id="Stroke-8" stroke="#FFFFFF" stroke-width="2" stroke-linecap="round"></path>
            <g id="Group-16" transform="translate(23.314286, 27.321360)" fill="#134E8E">
                <path d="M11.74316,0.693531429 C12.5380171,1.48838857 12.5380171,2.77650286 11.74316,3.57061714 C10.9483029,4.36547429 9.66018857,4.36547429 8.86607429,3.57061714 C8.07121714,2.77650286 8.07121714,1.48838857 8.86607429,0.693531429 C9.66018857,-0.101325714 10.9483029,-0.101325714 11.74316,0.693531429" id="Fill-10"></path>
                <path d="M3.80134857,5.97242286 C4.59620571,6.76728 4.59620571,8.05539429 3.80134857,8.84950857 C3.00649143,9.64436571 1.71837714,9.64436571 0.924262857,8.84950857 C0.129405714,8.05539429 0.129405714,6.76728 0.924262857,5.97242286 C1.71837714,5.17756571 3.00649143,5.17756571 3.80134857,5.97242286" id="Fill-12"></path>
                <path d="M11.74316,11.1724229 C12.5380171,11.96728 12.5380171,13.2553943 11.74316,14.0495086 C10.9483029,14.8443657 9.66018857,14.8443657 8.86607429,14.0495086 C8.07121714,13.2553943 8.07121714,11.96728 8.86607429,11.1724229 C9.66018857,10.3775657 10.9483029,10.3775657 11.74316,11.1724229" id="Fill-14"></path>
            </g>
            <path d="M33.6189029,26.6761886 C33.09816,26.6761886 32.5774171,26.8745314 32.1799886,27.27196 C31.3858743,28.0668171 31.3858743,29.3549314 32.1799886,30.1490457 C32.5774171,30.5464743 33.09816,30.7448171 33.6189029,30.7448171 C34.1396457,30.7448171 34.6603886,30.5464743 35.0578171,30.1490457 C35.8519314,29.3549314 35.8519314,28.0668171 35.0578171,27.27196 C34.6603886,26.8745314 34.1396457,26.6761886 33.6189029,26.6761886 M33.6189029,28.1619029 C33.7035886,28.1619029 33.8670171,28.1827029 34.0066743,28.32236 C34.2206171,28.5363029 34.2206171,28.8847029 34.0066743,29.0986457 C33.8670171,29.2383029 33.7035886,29.2591029 33.6189029,29.2591029 C33.5342171,29.2591029 33.3707886,29.2383029 33.2311314,29.0986457 C33.0171886,28.8847029 33.0171886,28.5363029 33.2311314,28.32236 C33.3707886,28.1827029 33.5342171,28.1619029 33.6189029,28.1619029" id="Fill-17" fill="#FFFFFF"></path>
            <path d="M25.6770914,31.95508 C25.1563486,31.95508 24.6356057,32.1534229 24.2381771,32.5508514 C23.4440629,33.3457086 23.4440629,34.6338229 24.2381771,35.4279371 C24.6356057,35.8253657 25.1563486,36.0237086 25.6770914,36.0237086 C26.1978343,36.0237086 26.7185771,35.8253657 27.1160057,35.4279371 C27.91012,34.6338229 27.91012,33.3457086 27.1160057,32.5508514 C26.7185771,32.1534229 26.1978343,31.95508 25.6770914,31.95508 M25.6770914,33.4407943 C25.7617771,33.4407943 25.9252057,33.4615943 26.0648629,33.6012514 C26.2788057,33.8151943 26.2788057,34.1635943 26.0648629,34.3775371 C25.9252057,34.5171943 25.7617771,34.5379943 25.6770914,34.5379943 C25.5924057,34.5379943 25.4289771,34.5171943 25.28932,34.3775371 C25.0753771,34.1635943 25.0753771,33.8151943 25.28932,33.6012514 C25.4289771,33.4615943 25.5924057,33.4407943 25.6770914,33.4407943" id="Fill-19" fill="#FFFFFF"></path>
            <path d="M33.6189029,37.15508 C33.09816,37.15508 32.5774171,37.3534229 32.1799886,37.7508514 C31.3858743,38.5457086 31.3858743,39.8338229 32.1799886,40.6279371 C32.5774171,41.0253657 33.09816,41.2237086 33.6189029,41.2237086 C34.1396457,41.2237086 34.6603886,41.0253657 35.0578171,40.6279371 C35.8519314,39.8338229 35.8519314,38.5457086 35.0578171,37.7508514 C34.6603886,37.3534229 34.1396457,37.15508 33.6189029,37.15508 M33.6189029,38.6407943 C33.7035886,38.6407943 33.8670171,38.6615943 34.0066743,38.8012514 C34.2206171,39.0151943 34.2206171,39.3635943 34.0066743,39.5775371 C33.8670171,39.7171943 33.7035886,39.7379943 33.6189029,39.7379943 C33.5342171,39.7379943 33.3707886,39.7171943 33.2311314,39.5775371 C33.0171886,39.3635943 33.0171886,39.0151943 33.2311314,38.8012514 C33.3707886,38.6615943 33.5342171,38.6407943 33.6189029,38.6407943" id="Fill-21" fill="#FFFFFF"></path>
        </g>
    </g>
</svg>