<?xml version="1.0" encoding="UTF-8"?>
<svg width="60px" height="60px" viewBox="0 0 60 60" version="1.1" xmlns="http://www.w3.org/2000/svg" xmlns:xlink="http://www.w3.org/1999/xlink">
    <!-- Generator: Sketch 40.2 (33826) - http://www.bohemiancoding.com/sketch -->
    <title>Design-Automation_Grey</title>
    <desc>Created with Sketch.</desc>
    <defs></defs>
    <g id="Symbols" stroke="none" stroke-width="1" fill="none" fill-rule="evenodd">
        <g id="Design-Automation_Grey">
            <g id="Design-Automation" transform="translate(4.000000, 12.000000)">
                <path d="M53,21.9762744 C53,16.8452836 48.7728175,12.593047 43.4871794,12.3616543 C43.483135,12.593047 43.4087301,12.5970388 43.4871794,12.3616543 C43.3382937,12.4742918 43.344246,12.3505468 43.4871794,12.3616543 C43.344246,5.47371923 37.9027778,0 31.2564102,0 C26.1875,0 21.8918651,3.04272925 20.3846154,6.86758575 C18.8680555,6.15830836 17.2311508,5.3878961 14.948718,5.4940686 C11.8938493,5.3878961 9.04166667,8.25698322 9.51282052,12.3616543 C9.04166667,12.0701248 9.06448413,12.3375735 9.51282052,12.3616543 C4.04265873,12.7846522 0,16.962043 0,21.9762744 C0,27.3376599 4.22718254,31.5908944 9.51282052,31.5908944 C9.58531747,31.5908944 9.7281746,31.5859047 9.51282052,31.5908944 L9.51282052,31.5908944 L43.4871794,31.5908944 L43.4871794,31.5908944 C48.9335318,31.42324 53,27.2368676 53,21.9762744" id="Fill-1" fill="#D7DADF"></path>
                <path d="M35.775,36.8560435 C31.8250424,36.8560435 27.825,35.409926 27.825,32.6439243 L27.825,20.0075665 C27.825,17.2415648 31.8250424,15.7954472 35.775,15.7954472 C39.7259207,15.7954472 43.725,17.2415648 43.725,20.0075665 L43.725,32.6439243 C43.725,35.409926 39.7259207,36.8560435 35.775,36.8560435" id="Fill-2" fill="#FFFFFF"></path>
                <path d="M43.725,19.744309 L43.725,31.5908944 C43.725,32.9458231 39.1367754,34.223469 35.1125,34.223469 C31.08722,34.223469 27.825,32.9458231 27.825,31.5908944 L27.825,19.744309 C27.825,18.4280218 31.8,17.1117345 35.775,17.1117345 C39.75,17.1117345 43.725,18.4280218 43.725,19.744309 L43.725,19.744309 Z M26.5,21.0605963 L26.5,31.5908944 C26.5,35.3586728 31.3071432,36.8560435 35.0615385,36.8560435 C40.2418544,36.8560435 45.05,35.3586728 45.05,31.5908944 L45.05,21.0605963 C45.05,15.7954472 41.075,15.7954472 35.775,15.7954472 C30.475,15.7954472 26.5,15.7954472 26.5,21.0605963 L26.5,21.0605963 Z" id="Fill-3" fill="#FFFFFF"></path>
                <path d="M43.725,20.4024527 C43.725,22.2200577 40.1651186,23.6931708 35.0522727,23.6931708 C31.3837854,23.6931708 27.825,22.2200577 27.825,20.4024527 C27.825,18.5848476 31.3837854,17.1117345 35.0522727,17.1117345 C40.1651186,17.1117345 43.725,18.5848476 43.725,20.4024527" id="Fill-4" fill="#E6E8EC"></path>
                <path d="M35.0522727,25.0094581 C31.3837854,25.086198 27.825,23.8729511 27.825,22.3768836 L27.825,26.3257454 C27.825,27.7450731 31.3837854,28.9583199 35.0522727,28.9583199 C40.1651186,28.9583199 43.725,27.7450731 43.725,26.3257454 L43.725,22.3768836 C43.725,23.8729511 40.1651186,25.086198 35.0522727,25.0094581" id="Fill-5" fill="#E6E8EC"></path>
                <path d="M35.0522727,30.2746072 C31.3837854,30.3518769 27.825,29.138796 27.825,27.6420326 L27.825,31.5908944 C27.825,33.0094876 31.3837854,34.223469 35.0522727,34.223469 C40.1651186,34.223469 43.725,33.0094876 43.725,31.5908944 L43.725,27.6420326 C43.725,29.138796 40.1651186,30.3518769 35.0522727,30.2746072" id="Fill-6" fill="#E6E8EC"></path>
            </g>
        </g>
    </g>
</svg>